<svg xmlns="http://www.w3.org/2000/svg" xmlns:xlink="http://www.w3.org/1999/xlink"><symbol id="icon-close" viewBox="0 0 20 20"><g fill="none"><path d="M.293 18.291a1 1 0 101.414 1.414L10 11.413l8.292 8.292a1 1 0 101.414-1.414l-8.292-8.292 8.292-8.292A1 1 0 1018.291.293L9.999 8.585 1.707.293A1 1 0 10.293 1.707L8.585 10 .293 18.291z"/></g></symbol><symbol id="play" viewBox="0 0 13 15"><g fill="none">
<path d="M13 7.5L0.249999 14.8612L0.25 0.138783L13 7.5Z" fill="white"/>
</g></symbol><symbol id="ruble" viewBox="0 0 24 33"><g fill="none">
<path fill-rule="evenodd" clip-rule="evenodd" d="M0 13.3571H4.8V18.0714H0V13.3571Z" fill="#102654"/>
<path fill-rule="evenodd" clip-rule="evenodd" d="M2.92683 22.2526V14.1429H7.72683V22.2526H16.8V26.9668H7.72683V33H2.92683V26.9668H0V22.2526H2.92683Z" fill="#102654"/>
<path fill-rule="evenodd" clip-rule="evenodd" d="M14.8 4.71429H8V13.3571H14.8C17.2301 13.3571 19.2 11.4224 19.2 9.03571C19.2 6.64906 17.2301 4.71429 14.8 4.71429ZM3.2 0V18.0714H14.8C19.881 18.0714 24 14.026 24 9.03571C24 4.04543 19.881 0 14.8 0H3.2Z" fill="#102654"/>
</g></symbol></svg>